<!-- Created with Inkscape (http://www.inkscape.org/) -->
<svg width="484.93" height="150" version="1.1" viewBox="0 0 484.93 150" xmlns="http://www.w3.org/2000/svg" xmlns:xlink="http://www.w3.org/1999/xlink">
 <defs>
  <clipPath id="clipPath3728-1">
   <path d="m40.32 35h242.32v33.716h-242.32z"/>
  </clipPath>
 </defs>
 <g transform="matrix(1.3333 0 0 -1.3333 -19.051 129.57)">
  <g transform="matrix(3.4856 0 0 3.4856 -35.516 -241.55)">
   <g transform="translate(-26.031 28.466)">
    <g clip-path="url(#clipPath3728-1)">
     <g transform="translate(55.197 56.906)">
      <path d="m0 0 17.239 11.807h-31.847m12.941-8.974c0 0.753 0.61 1.365 1.364 1.365s1.364-0.612 1.364-1.365c0-0.752-0.61-1.364-1.364-1.364s-1.364 0.612-1.364 1.364" fill="#00b1b0"/>
      <g transform="translate(-14.877 11.267)">
       <path d="M 0,0 18.251,-17.608 0,-31.604" fill="#00b1b0"/>
      </g>
     </g>
    </g>
   </g>
   <path d="m31.426 84.765 16.024-19.62v32.034" fill="#00b1b0"/>
   <path transform="translate(31.195 66.975)" d="m0 0c6.416 0 12.097-0.815 15.619-2.071h0.221l-13.155 12.716-18.658-12.716h0.355c3.52 1.256 9.204 2.071 15.618 2.071" fill="#b2d235"/>
   <g fill="#6d6e71">
    <path d="m57.748 90.839c-0.07 0.498-0.548 0.877-1.094 0.877-0.988 0-1.36-0.841-1.36-1.718 0-0.834 0.372-1.675 1.36-1.675 0.673 0 1.052 0.462 1.136 1.121h1.066c-0.113-1.247-0.976-2.046-2.202-2.046-1.548 0-2.46 1.156-2.46 2.6 0 1.486 0.912 2.642 2.46 2.642 1.101 0 2.026-0.644 2.159-1.801"/>
    <path d="m61.837 89.29c-0.168-0.147-0.518-0.155-0.827-0.211-0.308-0.062-0.589-0.168-0.589-0.532 0-0.372 0.288-0.462 0.61-0.462 0.778 0 0.806 0.616 0.806 0.834m-2.299 1.107c0.056 0.932 0.891 1.212 1.704 1.212 0.721 0 1.59-0.161 1.59-1.03v-1.885c0-0.33 0.036-0.66 0.126-0.806h-1.009c-0.035 0.112-0.063 0.231-0.069 0.35-0.315-0.329-0.779-0.449-1.221-0.449-0.686 0-1.233 0.344-1.233 1.087 0 0.821 0.617 1.016 1.233 1.1 0.61 0.092 1.178 0.071 1.178 0.477 0 0.428-0.295 0.49-0.645 0.49-0.378 0-0.624-0.153-0.659-0.546"/>
    <path d="m63.768 91.141h0.946v-0.505h0.021c0.254 0.407 0.687 0.604 1.108 0.604 1.058 0 1.325-0.597 1.325-1.494v-2.229h-0.996v2.047c0 0.596-0.176 0.89-0.637 0.89-0.541 0-0.772-0.302-0.772-1.037v-1.9h-0.995"/>
    <path d="m70.325 89.29c-0.168-0.147-0.518-0.155-0.827-0.211-0.308-0.062-0.589-0.168-0.589-0.532 0-0.372 0.288-0.462 0.611-0.462 0.778 0 0.805 0.616 0.805 0.834m-2.299 1.107c0.056 0.932 0.891 1.212 1.704 1.212 0.722 0 1.59-0.161 1.59-1.03v-1.885c0-0.33 0.036-0.66 0.126-0.806h-1.008c-0.035 0.112-0.063 0.231-0.07 0.35-0.315-0.329-0.778-0.449-1.22-0.449-0.686 0-1.234 0.344-1.234 1.087 0 0.821 0.617 1.016 1.234 1.1 0.61 0.092 1.177 0.071 1.177 0.477 0 0.428-0.294 0.49-0.645 0.49-0.377 0-0.623-0.153-0.658-0.546"/>
    <path d="m73.94 90.489c-0.652 0-0.877-0.561-0.877-1.157 0-0.567 0.259-1.163 0.877-1.163 0.658 0 0.854 0.575 0.854 1.17 0 0.589-0.209 1.15-0.854 1.15m0.869-2.509h-0.015c-0.231-0.393-0.637-0.561-1.1-0.561-1.094 0-1.626 0.939-1.626 1.941 0 0.974 0.54 1.879 1.605 1.879 0.427 0 0.849-0.183 1.072-0.539h0.015v1.821h0.995v-5.004h-0.946"/>
    <path d="m76.691 91.14h0.995v-3.624h-0.995zm0.996 0.561h-0.995v0.82h0.995z"/>
    <path d="m80.871 89.29c-0.168-0.147-0.518-0.155-0.828-0.211-0.308-0.062-0.588-0.168-0.588-0.532 0-0.372 0.288-0.462 0.61-0.462 0.778 0 0.806 0.616 0.806 0.834m-2.299 1.107c0.056 0.932 0.89 1.212 1.704 1.212 0.721 0 1.59-0.161 1.59-1.03v-1.885c0-0.33 0.035-0.66 0.126-0.806h-1.009c-0.035 0.112-0.063 0.231-0.069 0.35-0.316-0.329-0.778-0.449-1.22-0.449-0.687 0-1.234 0.344-1.234 1.087 0 0.821 0.616 1.016 1.234 1.1 0.61 0.092 1.177 0.071 1.177 0.477 0 0.428-0.295 0.49-0.645 0.49-0.378 0-0.624-0.153-0.658-0.546"/>
    <path d="m82.803 91.141h0.945v-0.505h0.022c0.253 0.407 0.686 0.604 1.107 0.604 1.058 0 1.325-0.597 1.325-1.494v-2.229h-0.995v2.047c0 0.596-0.175 0.89-0.638 0.89-0.541 0-0.771-0.302-0.771-1.037v-1.9h-0.995"/>
    <path d="m89.218 92.521h1.549l1.17-3.441h0.016l1.106 3.441h1.55v-5.004h-1.031v3.547h-0.014l-1.227-3.547h-0.848l-1.228 3.511h-0.012v-3.511h-1.031"/>
    <path d="m98.062 89.718c-0.091 0.505-0.307 0.771-0.792 0.771-0.631 0-0.813-0.491-0.826-0.771m0-0.631c0.027-0.63 0.336-0.918 0.89-0.918 0.398 0 0.721 0.245 0.784 0.469h0.876c-0.28-0.855-0.876-1.219-1.696-1.219-1.142 0-1.85 0.785-1.85 1.907 0 1.086 0.749 1.913 1.85 1.913 1.234 0 1.83-1.038 1.76-2.152"/>
    <path d="m99.792 91.141h0.946v-0.505h0.021c0.253 0.407 0.687 0.604 1.107 0.604 1.058 0 1.326-0.597 1.326-1.494v-2.229h-0.996v2.047c0 0.596-0.175 0.89-0.638 0.89-0.54 0-0.77-0.302-0.77-1.037v-1.9h-0.996"/>
    <path d="m105.33 91.141h0.729v-0.666h-0.729v-1.794c0-0.336 0.085-0.421 0.421-0.421 0.105 0 0.203 8e-3 0.308 0.028v-0.777c-0.168-0.029-0.385-0.036-0.581-0.036-0.61 0-1.143 0.141-1.143 0.862v2.138h-0.603v0.666h0.603v1.086h0.995"/>
    <path d="m108.99 89.29c-0.168-0.147-0.518-0.155-0.827-0.211-0.308-0.062-0.589-0.168-0.589-0.532 0-0.372 0.288-0.462 0.61-0.462 0.778 0 0.806 0.616 0.806 0.834m-2.298 1.107c0.055 0.932 0.89 1.212 1.703 1.212 0.721 0 1.591-0.161 1.591-1.03v-1.885c0-0.33 0.034-0.66 0.125-0.806h-1.009c-0.035 0.112-0.063 0.231-0.07 0.35-0.315-0.329-0.778-0.449-1.22-0.449-0.686 0-1.233 0.344-1.233 1.087 0 0.821 0.617 1.016 1.233 1.1 0.61 0.092 1.178 0.071 1.178 0.477 0 0.428-0.295 0.49-0.645 0.49-0.379 0-0.623-0.153-0.659-0.546"/>
    <path d="m110.93 92.521h0.995v-5.004h-0.995z"/>
    <path d="m54.411 84.115h1.101v-1.92h2.025v1.92h1.1v-5.004h-1.1v2.159h-2.025v-2.159h-1.101"/>
    <path d="m62.087 81.312c-0.09 0.505-0.308 0.771-0.792 0.771-0.63 0-0.812-0.49-0.827-0.771m0-0.631c0.028-0.63 0.337-0.918 0.891-0.918 0.399 0 0.721 0.245 0.784 0.469h0.877c-0.281-0.854-0.877-1.219-1.696-1.219-1.144 0-1.851 0.785-1.851 1.907 0 1.086 0.751 1.913 1.851 1.913 1.233 0 1.829-1.037 1.758-2.152"/>
    <path d="m66.041 80.884c-0.168-0.147-0.518-0.155-0.827-0.21-0.309-0.063-0.589-0.169-0.589-0.533 0-0.371 0.288-0.462 0.61-0.462 0.778 0 0.806 0.617 0.806 0.834m-2.299 1.107c0.056 0.932 0.89 1.212 1.704 1.212 0.721 0 1.59-0.161 1.59-1.03v-1.885c0-0.33 0.035-0.659 0.126-0.806h-1.009c-0.035 0.113-0.063 0.231-0.069 0.351-0.315-0.33-0.779-0.449-1.221-0.449-0.686 0-1.233 0.343-1.233 1.086 0 0.821 0.617 1.016 1.233 1.1 0.61 0.092 1.178 0.071 1.178 0.477 0 0.428-0.295 0.49-0.645 0.49-0.378 0-0.624-0.153-0.659-0.546"/>
    <path d="m67.984 84.115h0.995v-5.004h-0.995z"/>
    <path d="m71.156 82.735h0.728v-0.666h-0.728v-1.794c0-0.336 0.085-0.421 0.42-0.421 0.106 0 0.203 8e-3 0.308 0.029v-0.778c-0.168-0.029-0.385-0.036-0.581-0.036-0.61 0-1.142 0.14-1.142 0.862v2.138h-0.604v0.666h0.604v1.086h0.995"/>
    <path d="m72.577 84.115h0.996v-1.886h0.021c0.252 0.407 0.687 0.604 1.058 0.604 1.058 0 1.325-0.596 1.325-1.494v-2.228h-0.996v2.047c0 0.596-0.175 0.89-0.638 0.89-0.54 0-0.77-0.302-0.77-1.038v-1.899h-0.996"/>
    <path d="m80.255 81.046h1.296l-0.631 1.836h-0.013m-0.547 1.233h1.128l1.871-5.004h-1.141l-0.379 1.115h-1.871l-0.393-1.115h-1.114"/>
    <path d="m84.591 80.289c8e-3 -0.435 0.372-0.61 0.763-0.61 0.288 0 0.653 0.112 0.653 0.463 0 0.301-0.413 0.406-1.128 0.561-0.575 0.125-1.15 0.329-1.15 0.966 0 0.926 0.799 1.165 1.577 1.165 0.792 0 1.521-0.267 1.599-1.157h-0.948c-0.027 0.385-0.322 0.49-0.679 0.49-0.224 0-0.554-0.042-0.554-0.337 0-0.356 0.561-0.406 1.129-0.539 0.582-0.133 1.149-0.344 1.149-1.016 0-0.953-0.827-1.262-1.654-1.262-0.841 0-1.661 0.316-1.703 1.276"/>
    <path d="m88.513 80.289c7e-3 -0.435 0.372-0.61 0.763-0.61 0.288 0 0.652 0.112 0.652 0.463 0 0.301-0.413 0.406-1.128 0.561-0.575 0.125-1.15 0.329-1.15 0.966 0 0.926 0.8 1.165 1.578 1.165 0.792 0 1.52-0.267 1.598-1.157h-0.946c-0.029 0.385-0.323 0.49-0.68 0.49-0.224 0-0.554-0.042-0.554-0.337 0-0.356 0.56-0.406 1.128-0.539 0.583-0.133 1.149-0.344 1.149-1.016 0-0.953-0.827-1.262-1.653-1.262-0.842 0-1.661 0.316-1.703 1.276"/>
    <path d="m93.374 79.763c0.679 0 0.882 0.582 0.882 1.157 0 0.581-0.203 1.163-0.882 1.163-0.674 0-0.877-0.582-0.877-1.163 0-0.575 0.203-1.157 0.877-1.157m0 3.07c1.142 0 1.879-0.757 1.879-1.913 0-1.15-0.737-1.907-1.879-1.907-1.136 0-1.871 0.757-1.871 1.907 0 1.156 0.735 1.913 1.871 1.913"/>
    <path d="m98.462 81.459c-0.063 0.407-0.323 0.624-0.735 0.624-0.639 0-0.849-0.645-0.849-1.178 0-0.518 0.203-1.142 0.827-1.142 0.462 0 0.729 0.295 0.792 0.736h0.96c-0.127-0.96-0.792-1.486-1.745-1.486-1.093 0-1.829 0.771-1.829 1.857 0 1.129 0.672 1.963 1.85 1.963 0.855 0 1.64-0.448 1.703-1.374"/>
    <path d="m100.19 82.735h0.995v-3.624h-0.995zm0.994 0.56h-0.995v0.82h0.995z"/>
    <path d="m104.37 80.884c-0.167-0.147-0.518-0.155-0.827-0.21-0.309-0.063-0.589-0.169-0.589-0.533 0-0.371 0.287-0.462 0.61-0.462 0.778 0 0.806 0.617 0.806 0.834m-2.299 1.107c0.056 0.932 0.89 1.212 1.704 1.212 0.721 0 1.59-0.161 1.59-1.03v-1.885c0-0.33 0.035-0.659 0.126-0.806h-1.009c-0.035 0.113-0.063 0.231-0.07 0.351-0.316-0.33-0.778-0.449-1.22-0.449-0.687 0-1.232 0.343-1.232 1.086 0 0.821 0.616 1.016 1.232 1.1 0.61 0.092 1.178 0.071 1.178 0.477 0 0.428-0.294 0.49-0.645 0.49-0.378 0-0.623-0.153-0.659-0.546"/>
    <path d="m107.54 82.735h0.728v-0.666h-0.728v-1.794c0-0.336 0.085-0.421 0.421-0.421 0.105 0 0.203 8e-3 0.307 0.029v-0.778c-0.167-0.029-0.384-0.036-0.58-0.036-0.61 0-1.143 0.14-1.143 0.862v2.138h-0.603v0.666h0.603v1.086h0.995"/>
    <path d="m109 82.735h0.995v-3.624h-0.995zm0.995 0.56h-0.995v0.82h0.995z"/>
    <path d="m112.57 79.763c0.679 0 0.882 0.582 0.882 1.157 0 0.581-0.203 1.163-0.882 1.163-0.673 0-0.876-0.582-0.876-1.163 0-0.575 0.203-1.157 0.876-1.157m0 3.07c1.142 0 1.878-0.757 1.878-1.913 0-1.15-0.736-1.907-1.878-1.907-1.135 0-1.872 0.757-1.872 1.907 0 1.156 0.737 1.913 1.872 1.913"/>
    <path d="m115.23 82.735h0.945v-0.504h0.022c0.252 0.406 0.687 0.602 1.107 0.602 1.058 0 1.325-0.596 1.325-1.493v-2.229h-0.996v2.047c0 0.596-0.175 0.89-0.637 0.89-0.541 0-0.771-0.302-0.771-1.037v-1.9h-0.995"/>
   </g>
   <g fill="#00b1b0">
    <path d="m59.137 68.603h-0.714l0.474 3.52c0.045 0.33 0.135 0.811 0.15 0.879-0.105-0.264-0.256-0.579-0.369-0.812l-1.8-3.587h-0.616l-0.217 3.423c-0.022 0.352-0.045 0.637-0.039 0.983-0.022-0.075-0.171-0.668-0.261-0.983l-0.991-3.423h-0.714l1.562 5.164h1.013l0.195-3.167c0.023-0.369 0.03-0.518 8e-3 -0.886 0.157 0.397 0.232 0.57 0.367 0.848l1.583 3.205h1.022"/>
    <path d="m62.284 71.936c-0.45 0-0.886-0.421-1.073-1.164 0.082-7e-3 0.24-0.015 0.36-0.015 0.578 0 0.878 0.082 1.065 0.271 0.114 0.112 0.181 0.247 0.181 0.42 0 0.271-0.143 0.488-0.533 0.488m0.886-1.246c-0.316-0.3-0.811-0.451-1.607-0.451-0.173 0-0.345 0.023-0.465 0.023-0.03-0.127-0.052-0.307-0.052-0.435 0-0.504 0.315-0.758 0.721-0.758 0.434 0 0.734 0.12 1.087 0.42l0.248-0.428c-0.406-0.375-0.826-0.548-1.524-0.548-0.751 0-1.283 0.495-1.283 1.367 0 0.743 0.308 1.552 0.833 2.064 0.375 0.36 0.787 0.525 1.253 0.525 0.721 0 1.133-0.361 1.133-0.991 0-0.307-0.127-0.586-0.344-0.788"/>
    <path d="m67.359 71.388-0.593-2.784h-0.69l0.532 2.521c0.038 0.18 0.061 0.3 0.061 0.39 0 0.233-0.113 0.338-0.339 0.338-0.285 0-0.728-0.217-1.184-0.795l-0.519-2.454h-0.683l0.57 2.649c0.098 0.465 0.098 0.668 0.023 0.946l0.645 0.285c0.075-0.21 0.128-0.443 0.053-0.773 0.383 0.488 0.908 0.743 1.411 0.743 0.465 0 0.75-0.293 0.75-0.751 0-0.098-0.015-0.21-0.037-0.315"/>
    <path d="m70.133 71.861h-0.773l-0.45-2.124c-0.03-0.158-0.053-0.285-0.053-0.39 0-0.256 0.113-0.346 0.368-0.346 0.15 0 0.27 0.03 0.39 0.076v-0.428c-0.233-0.106-0.472-0.158-0.735-0.158-0.473 0-0.721 0.232-0.721 0.622 0 0.181 0.015 0.331 0.052 0.534l0.466 2.214h-0.457l0.096 0.51h0.466c0.075 0.316 0.165 0.645 0.256 0.93l0.75 0.166c-0.105-0.293-0.24-0.758-0.308-1.096h0.916"/>
    <path d="m72.512 71.913c-0.406 0-0.684-0.127-0.991-0.487-0.36-0.429-0.511-1.156-0.511-1.697 0-0.457 0.166-0.63 0.481-0.63 0.376 0 0.796 0.36 1.021 0.825l0.405 1.899c-0.098 0.053-0.247 0.09-0.405 0.09m0.975-0.57-0.322-1.516c-0.121-0.555-0.053-0.736 0.135-0.931l-0.563-0.428c-0.21 0.203-0.293 0.413-0.279 0.728-0.261-0.413-0.689-0.667-1.23-0.667-0.517 0-0.929 0.375-0.929 1.193 0 0.78 0.291 1.628 0.786 2.123 0.398 0.398 0.909 0.623 1.502 0.623 0.412 0 0.811-0.097 1.111-0.299-0.061-0.196-0.159-0.563-0.211-0.826"/>
    <path d="m75.672 72.829-0.69-3.212c-0.046-0.195-0.061-0.315-0.061-0.39 0-0.128 0.061-0.188 0.173-0.188 0.037 0 0.098 0 0.136 0.016l0.036-0.444c-0.165-0.068-0.33-0.09-0.502-0.09-0.368 0-0.571 0.188-0.571 0.51 0 0.106 0.022 0.255 0.061 0.421l0.698 3.317c0.104 0.503 0.119 0.878 0.045 1.118l0.734 0.264c0.084-0.271 0.039-0.864-0.059-1.322"/>
    <path d="m81.234 71.283-0.572-2.68h-0.675l0.533 2.537c0.03 0.135 0.053 0.27 0.053 0.353 0 0.248-0.15 0.368-0.383 0.368-0.33 0-0.848-0.322-1.231-0.795l-0.525-2.463h-0.69l0.885 4.151c0.112 0.518 0.12 0.885 0.045 1.133l0.728 0.263c0.081-0.278 0.045-0.797-0.067-1.328l-0.099-0.459c-0.029-0.134-0.119-0.473-0.172-0.638 0.406 0.504 0.968 0.728 1.419 0.728 0.517 0 0.818-0.299 0.818-0.712 0-0.112-0.031-0.271-0.067-0.458"/>
    <path d="m83.881 71.936c-0.45 0-0.886-0.421-1.075-1.164 0.085-7e-3 0.242-0.015 0.362-0.015 0.578 0 0.877 0.082 1.065 0.271 0.113 0.112 0.182 0.247 0.182 0.42 0 0.271-0.143 0.488-0.534 0.488m0.885-1.246c-0.315-0.3-0.81-0.451-1.606-0.451-0.173 0-0.345 0.023-0.465 0.023-0.031-0.127-0.053-0.307-0.053-0.435 0-0.504 0.316-0.758 0.721-0.758 0.435 0 0.736 0.12 1.088 0.42l0.248-0.428c-0.405-0.375-0.826-0.548-1.524-0.548-0.751 0-1.284 0.495-1.284 1.367 0 0.743 0.309 1.552 0.835 2.064 0.375 0.36 0.786 0.525 1.252 0.525 0.721 0 1.134-0.361 1.134-0.991 0-0.307-0.129-0.586-0.346-0.788"/>
    <path d="m87.789 71.913c-0.406 0-0.684-0.127-0.991-0.487-0.36-0.429-0.511-1.156-0.511-1.697 0-0.457 0.166-0.63 0.481-0.63 0.375 0 0.795 0.36 1.021 0.825l0.405 1.899c-0.098 0.053-0.247 0.09-0.405 0.09m0.975-0.57-0.322-1.516c-0.121-0.555-0.053-0.736 0.135-0.931l-0.563-0.428c-0.21 0.203-0.293 0.413-0.278 0.728-0.262-0.413-0.69-0.667-1.231-0.667-0.517 0-0.93 0.375-0.93 1.193 0 0.78 0.292 1.628 0.787 2.123 0.398 0.398 0.909 0.623 1.502 0.623 0.412 0 0.811-0.097 1.111-0.299-0.061-0.196-0.159-0.563-0.211-0.826"/>
    <path d="m90.949 72.829-0.69-3.212c-0.045-0.195-0.061-0.315-0.061-0.39 0-0.128 0.061-0.188 0.173-0.188 0.037 0 0.098 0 0.136 0.016l0.036-0.444c-0.165-0.068-0.329-0.09-0.502-0.09-0.368 0-0.571 0.188-0.571 0.51 0 0.106 0.023 0.255 0.061 0.421l0.697 3.317c0.105 0.503 0.12 0.878 0.045 1.118l0.736 0.264c0.083-0.271 0.037-0.864-0.06-1.322"/>
    <path d="m93.475 71.861h-0.773l-0.449-2.124c-0.031-0.158-0.053-0.285-0.053-0.39 0-0.256 0.112-0.346 0.368-0.346 0.15 0 0.27 0.03 0.39 0.076v-0.428c-0.233-0.106-0.473-0.158-0.736-0.158-0.472 0-0.72 0.232-0.72 0.622 0 0.181 0.015 0.331 0.052 0.534l0.465 2.214h-0.457l0.097 0.51h0.466c0.075 0.316 0.164 0.645 0.256 0.93l0.749 0.166c-0.104-0.293-0.239-0.758-0.308-1.096h0.916"/>
    <path d="m97.156 71.283-0.57-2.68h-0.676l0.533 2.537c0.03 0.135 0.053 0.27 0.053 0.353 0 0.248-0.15 0.368-0.384 0.368-0.329 0-0.847-0.322-1.23-0.795l-0.525-2.463h-0.69l0.885 4.151c0.112 0.518 0.12 0.885 0.045 1.133l0.728 0.263c0.082-0.278 0.045-0.797-0.067-1.328l-0.098-0.459c-0.031-0.134-0.12-0.473-0.173-0.638 0.406 0.504 0.969 0.728 1.418 0.728 0.519 0 0.819-0.299 0.819-0.712 0-0.112-0.03-0.271-0.068-0.458"/>
    <path d="m102.22 73.384c-0.158 0.105-0.33 0.158-0.518 0.158-0.308 0-0.547-0.218-0.615-0.6l-0.105-0.571h1.02l-0.3-0.51h-0.81l-0.661-3.333c-0.135-0.698-0.36-1.162-0.676-1.516l-0.509 0.338c0.224 0.293 0.404 0.675 0.509 1.216l0.646 3.295h-0.382l0.097 0.51h0.375c7e-3 0.037 0.091 0.458 0.098 0.503 0.097 0.503 0.3 0.819 0.608 1.013 0.203 0.127 0.45 0.18 0.728 0.18 0.33 0 0.578-0.067 0.765-0.195"/>
    <path d="m103.72 71.921c-0.797 0-1.247-1.058-1.247-2.109 0-0.533 0.247-0.751 0.669-0.751 0.81 0 1.238 1.066 1.238 2.117 0 0.549-0.292 0.743-0.66 0.743m-0.706-3.407c-0.826 0-1.292 0.495-1.292 1.351 0 1.471 0.894 2.604 2.118 2.604 0.863 0 1.297-0.525 1.297-1.344 0-1.426-0.825-2.611-2.123-2.611"/>
    <path d="m108.12 71.711c-0.075 0.03-0.143 0.045-0.255 0.045-0.307 0-0.652-0.256-0.998-0.766l-0.503-2.387h-0.683l0.541 2.537c0.111 0.54 0.119 0.796 0.037 1.058l0.645 0.286c0.082-0.203 0.113-0.48 0.045-0.827 0.353 0.496 0.819 0.805 1.171 0.805 0.143 0 0.211-0.015 0.301-0.045"/>
    <path d="m112.1 71.913c-0.405 0-0.683-0.127-0.99-0.487-0.361-0.429-0.512-1.156-0.512-1.697 0-0.457 0.167-0.63 0.482-0.63 0.375 0 0.795 0.36 1.02 0.825l0.406 1.899c-0.098 0.053-0.247 0.09-0.406 0.09m0.976-0.57-0.323-1.516c-0.119-0.555-0.053-0.736 0.136-0.931l-0.563-0.428c-0.21 0.203-0.294 0.413-0.279 0.728-0.262-0.413-0.69-0.667-1.23-0.667-0.518 0-0.93 0.375-0.93 1.193 0 0.78 0.292 1.628 0.787 2.123 0.398 0.398 0.909 0.623 1.501 0.623 0.413 0 0.811-0.097 1.111-0.299-0.06-0.196-0.157-0.563-0.21-0.826"/>
    <path d="m115.26 72.829-0.691-3.212c-0.045-0.195-0.06-0.315-0.06-0.39 0-0.128 0.06-0.188 0.173-0.188 0.037 0 0.098 0 0.135 0.016l0.037-0.444c-0.165-0.068-0.33-0.09-0.502-0.09-0.368 0-0.571 0.188-0.571 0.51 0 0.106 0.022 0.255 0.06 0.421l0.698 3.317c0.105 0.503 0.121 0.878 0.045 1.118l0.735 0.264c0.083-0.271 0.038-0.864-0.059-1.322"/>
    <path transform="translate(117.19 72.829)" d="m0 0-0.691-3.212c-0.044-0.195-0.06-0.315-0.06-0.39 0-0.128 0.06-0.188 0.173-0.188 0.038 0 0.098 0 0.135 0.016l0.038-0.444c-0.165-0.068-0.33-0.09-0.503-0.09-0.368 0-0.571 0.188-0.571 0.51 0 0.106 0.022 0.255 0.06 0.421l0.698 3.317c0.105 0.503 0.121 0.878 0.045 1.118l0.736 0.264c0.083-0.271 0.037-0.864-0.06-1.322"/>
   </g>
  </g>
 </g>
</svg>
